<?xml version="1.0" encoding="UTF-8" standalone="no"?>
<!DOCTYPE svg PUBLIC "-//W3C//DTD SVG 1.1//EN" "http://www.w3.org/Graphics/SVG/1.1/DTD/svg11.dtd">
<svg width="100%" height="100%" viewBox="0 0 723 723" version="1.1" xmlns="http://www.w3.org/2000/svg" xmlns:xlink="http://www.w3.org/1999/xlink" xml:space="preserve" xmlns:serif="http://www.serif.com/" style="fill-rule:evenodd;clip-rule:evenodd;stroke-linejoin:round;stroke-miterlimit:2;">
    <g id="Complete-cup" serif:id="Complete cup" transform="matrix(1,0,0,1,-150.618,-140.893)">
        <g id="Cup-base" serif:id="Cup base">
            <g id="Floor-stand" serif:id="Floor stand" transform="matrix(0.630305,0,0,1,189.105,337.624)">
                <path d="M364.789,439.524C355.449,439.524 347.866,434.745 347.866,428.858C347.866,422.971 355.449,418.191 364.789,418.191L658.242,418.191C667.582,418.191 675.165,422.971 675.165,428.858C675.165,434.745 667.582,439.524 658.242,439.524L364.789,439.524Z" style="fill:white;"/>
            </g>
            <path id="Lower-stand" serif:id="Lower stand" d="M512,704.3L540.519,704.327C540.519,704.327 552.519,718.228 560.067,722.417C567.614,726.606 580.929,727.88 585.806,729.459C587.162,729.898 588.477,730.875 589.327,731.887C590.177,732.899 590.905,734.206 590.905,735.529L590.905,746.457L433.095,746.457L433.095,735.529C433.095,734.206 433.823,732.899 434.673,731.887C435.523,730.875 436.838,729.898 438.194,729.459C443.071,727.88 456.386,726.606 463.933,722.417C471.481,718.228 483.481,704.327 483.481,704.327L512,704.3Z" style="fill:white;"/>
            <g id="Upper-stand" serif:id="Upper stand">
                <path id="Bottom-upper-stand" serif:id="Bottom upper stand" d="M543.504,686.061L538.966,693.832L485.034,693.832L480.496,686.061L543.504,686.061Z" style="fill:white;"/>
                <path id="Top-upper-stand" serif:id="Top upper stand" d="M534.167,658.013L534.52,658.013L548.798,672.583C548.798,672.583 549.592,674.461 549.575,675.302C549.559,676.132 549.342,677.541 548.892,678.238C548.277,679.193 547.356,681.033 545.884,681.033L477.146,681.033C475.674,681.033 474.753,679.193 474.138,678.238C473.689,677.541 473.471,676.132 473.455,675.302C473.439,674.461 474.232,672.583 474.232,672.583L488.51,658.013L488.863,658.013C491.662,658.725 494.262,659.291 496.324,659.677C500.525,660.462 505.325,660.77 507.069,660.788C511.494,660.834 511.515,660.789 511.515,660.788C511.515,660.789 511.537,660.834 515.961,660.788C517.706,660.77 522.505,660.462 526.707,659.677C528.769,659.291 531.369,658.725 534.167,658.013Z" style="fill:white;"/>
            </g>
        </g>
        <path id="Cup" d="M511.515,432.496C511.515,432.496 532.264,432.448 542.639,432.496C555.978,432.557 577.097,432.619 591.548,432.866C604.149,433.082 618.225,433.545 629.341,433.978C638.98,434.353 658.242,435.46 658.242,435.46C658.242,435.46 656.636,462.719 654.907,475.476C653.242,487.762 650.646,501.07 647.867,512C645.353,521.89 641.753,531.893 638.234,541.058C634.844,549.885 631.146,558.625 626.747,566.995C622.301,575.455 617.183,583.917 611.556,591.82C605.751,599.971 599.082,608.802 591.918,615.904C584.864,622.898 575.986,629.428 568.575,634.43C561.933,638.913 554.434,643.014 547.456,645.916C540.814,648.678 531.994,650.856 526.707,651.844C522.505,652.63 517.706,652.938 515.961,652.956C511.537,653.002 511.515,652.957 511.515,652.956C511.515,652.957 511.494,653.002 507.069,652.956C505.325,652.938 500.525,652.63 496.324,651.844C491.037,650.856 482.216,648.678 475.575,645.916C468.596,643.014 461.097,638.913 454.455,634.43C447.044,629.428 438.166,622.898 431.112,615.904C423.949,608.802 417.279,599.971 411.474,591.82C405.847,583.917 400.729,575.455 396.283,566.995C391.884,558.625 388.187,549.885 384.797,541.058C381.277,531.893 377.678,521.89 375.163,512C372.384,501.07 369.789,487.762 368.123,475.476C366.394,462.719 364.789,435.46 364.789,435.46C364.789,435.46 384.05,434.353 393.689,433.978C404.805,433.545 418.881,433.082 431.482,432.866C445.933,432.619 467.053,432.557 480.391,432.496C490.766,432.448 511.515,432.496 511.515,432.496ZM502.521,563.671L512.811,575.552L523.102,563.671C523.102,563.671 526.789,559.361 528.402,556.942C530.243,554.18 532.929,549.632 534.725,546.332C536.323,543.396 537.876,540.433 539.311,537.415C540.867,534.143 542.54,530.633 543.82,527.108C545.081,523.635 546.315,519.858 547.311,516.363C548.281,512.954 549.061,509.792 549.832,505.972C550.478,502.767 550.925,496.225 550.925,496.225L551.839,481.395L536.986,481.778C536.986,481.778 533.889,481.878 532.58,481.799C531.527,481.734 530.555,481.664 529.548,481.513C528.742,481.392 528.254,481.285 527.552,481.088C526.438,480.777 525.168,480.318 523.953,479.891C523.144,479.607 522.35,479.356 521.832,479.092C520.935,478.633 518.847,477.6 518.847,477.6L512.811,474.614L506.775,477.6C506.775,477.6 504.688,478.633 503.79,479.092C503.273,479.356 502.478,479.607 501.67,479.891C500.455,480.318 499.184,480.777 498.071,481.088C497.369,481.285 496.881,481.392 496.075,481.513C495.068,481.664 494.096,481.734 493.042,481.799C491.733,481.878 488.637,481.778 488.637,481.778L473.784,481.395L474.698,496.225C474.698,496.225 475.144,502.767 475.791,505.972C476.562,509.792 477.341,512.954 478.312,516.363C479.308,519.858 480.542,523.635 481.803,527.108C483.082,530.633 484.755,534.143 486.311,537.415C487.747,540.433 489.3,543.396 490.898,546.332C492.694,549.632 495.38,554.18 497.221,556.942C498.833,559.361 502.521,563.671 502.521,563.671ZM512.811,554.758C512.811,554.758 509.839,551.326 508.548,549.39C506.889,546.901 504.474,542.799 502.856,539.824C501.376,537.106 499.935,534.363 498.606,531.568C497.23,528.675 495.731,525.579 494.599,522.462C493.446,519.285 492.316,515.831 491.405,512.634C490.531,509.565 489.83,506.718 489.136,503.279C488.613,500.686 488.286,495.387 488.286,495.387C488.286,495.387 492.212,495.489 493.871,495.387C495.339,495.298 496.692,495.186 498.095,494.976C499.568,494.755 500.459,494.557 501.742,494.198C503.114,493.814 504.685,493.262 506.183,492.736C507.646,492.222 509.054,491.691 509.99,491.212C510.839,490.778 512.811,489.802 512.811,489.802C512.811,489.802 514.784,490.778 515.632,491.212C516.569,491.691 517.977,492.222 519.44,492.736C520.938,493.262 522.508,493.814 523.881,494.198C525.164,494.557 526.054,494.755 527.527,494.976C528.93,495.186 530.283,495.298 531.752,495.387C533.411,495.489 537.337,495.387 537.337,495.387C537.337,495.387 537.01,500.686 536.487,503.279C535.793,506.718 535.091,509.565 534.217,512.634C533.307,515.831 532.177,519.285 531.023,522.462C529.892,525.579 528.393,528.675 527.017,531.568C525.687,534.363 524.247,537.106 522.767,539.824C521.148,542.799 518.734,546.901 517.074,549.39C515.784,551.326 512.811,554.758 512.811,554.758ZM456.462,628.43C462.871,632.913 470.106,637.014 476.839,639.916C483.247,642.678 491.757,644.856 496.858,645.844C500.912,646.63 505.542,646.938 507.225,646.956C511.494,647.002 511.515,646.957 511.515,646.956C511.515,646.957 511.536,647.002 515.805,646.956C517.488,646.938 522.118,646.63 526.172,645.844C531.273,644.856 539.783,642.678 546.191,639.916C552.924,637.014 560.16,632.913 566.568,628.43C570.143,625.929 540.829,640.51 511.515,640.51C482.201,640.51 452.887,625.929 456.462,628.43Z" style="fill:white;"/>
        <g id="Upper-cup-divider" serif:id="Upper cup divider" transform="matrix(1,0,0,1,0,-21)">
            <path d="M365.401,446.109C359.523,446.447 354.477,441.949 354.14,436.072C353.802,430.195 358.299,425.149 364.176,424.811C364.176,424.811 383.57,423.697 393.275,423.319C404.459,422.884 418.621,422.418 431.3,422.201C445.79,421.953 466.967,421.891 480.342,421.829C490.533,421.782 510.712,421.827 511.515,421.829C512.318,421.827 532.497,421.782 542.688,421.829C556.063,421.891 577.24,421.953 591.73,422.201C604.409,422.418 618.572,422.884 629.755,423.319C639.46,423.697 658.854,424.811 658.854,424.811C664.731,425.149 669.229,430.195 668.891,436.072C668.553,441.949 663.507,446.447 657.63,446.109C657.63,446.109 638.5,445.009 628.926,444.636C617.879,444.207 603.889,443.745 591.365,443.531C576.954,443.285 555.892,443.224 542.59,443.162C532.24,443.114 511.54,443.162 511.54,443.162L511.49,443.162C511.49,443.162 490.791,443.114 480.441,443.162C467.138,443.224 446.076,443.285 431.665,443.531C419.141,443.745 405.151,444.207 394.104,444.636C384.531,445.009 365.401,446.109 365.401,446.109Z" style="fill:white;"/>
        </g>
        <g id="Crown" transform="matrix(1,0,0,1,0,1.11877)">
            <path d="M372.495,392.347C372.466,391.624 372.428,390.763 372.392,390.188C372.265,388.19 372.094,384.512 371.785,381.689C371.431,378.451 370.9,374.227 370.267,370.762C369.661,367.442 368.924,364.14 367.991,360.897C367.03,357.558 365.664,353.688 364.5,350.729C363.481,348.138 361.01,343.141 361.01,343.141L379.221,298.218L406.485,333.822L398.326,355.482C398.326,355.482 399.343,357.829 400.047,359.046C400.889,360.5 402.482,362.799 403.504,364.211C404.604,365.732 405.546,366.879 406.97,368.303C408.395,369.728 410.57,371.38 412.529,371.962C414.487,372.545 417.034,372.527 418.723,371.8C420.283,371.128 421.631,370.032 422.67,369.013C423.915,367.793 425.315,366.188 426.496,364.699C427.808,363.048 429.178,360.925 430.06,359.17C430.786,357.726 431.884,354.371 431.884,354.371L417.77,332.365L440.838,288.809L468.156,330.544L456.622,353.916C456.622,353.916 458.587,358.055 459.809,359.986C461.074,361.985 462.541,364.261 464.21,365.905C465.84,367.511 467.878,369.143 469.825,369.851C471.729,370.544 473.932,370.652 475.896,370.155C477.894,369.649 480.095,368.29 481.815,366.816C483.762,365.146 486.014,362.627 487.582,360.138C489.175,357.609 490.491,354.295 491.376,351.639C492.176,349.239 492.696,346.725 492.894,344.203C493.096,341.623 492.919,338.714 492.59,336.159C492.272,333.689 491.803,331.204 490.921,328.875C490.01,326.472 488.593,324.001 487.127,321.742C485.584,319.364 481.663,314.609 481.663,314.609L501.848,286.684L483.029,260.732L512,226.281L540.971,260.732L522.152,286.684L542.337,314.609C542.337,314.609 538.416,319.364 536.873,321.742C535.407,324.001 533.99,326.472 533.079,328.875C532.197,331.204 531.728,333.689 531.41,336.159C531.081,338.714 530.904,341.623 531.106,344.203C531.304,346.725 531.824,349.239 532.624,351.639C533.509,354.295 534.825,357.609 536.418,360.138C537.986,362.627 540.238,365.146 542.185,366.816C543.905,368.29 546.106,369.649 548.104,370.155C550.068,370.652 552.271,370.544 554.175,369.851C556.122,369.143 558.16,367.511 559.79,365.905C561.459,364.261 562.926,361.985 564.191,359.986C565.413,358.055 567.378,353.916 567.378,353.916L555.844,330.544L583.162,288.809L606.23,332.365L592.116,354.371C592.116,354.371 593.214,357.726 593.94,359.17C594.822,360.925 596.192,363.048 597.504,364.699C598.685,366.188 600.085,367.793 601.33,369.013C602.369,370.032 603.717,371.128 605.277,371.8C606.966,372.527 609.513,372.545 611.471,371.962C613.43,371.38 615.605,369.728 617.03,368.303C618.454,366.879 619.396,365.732 620.496,364.211C621.518,362.799 623.111,360.5 623.953,359.046C624.657,357.829 625.674,355.482 625.674,355.482L617.515,333.822L644.779,298.218L662.99,343.141C662.99,343.141 660.519,348.138 659.5,350.729C658.336,353.688 656.97,357.558 656.009,360.897C655.076,364.14 654.339,367.442 653.733,370.762C653.1,374.227 652.569,378.451 652.215,381.689C651.906,384.512 651.735,388.19 651.608,390.188C651.571,390.777 651.532,391.666 651.503,392.4C644.982,392.042 635.607,391.547 629.755,391.319C618.572,390.884 604.409,390.418 591.73,390.201C577.24,389.953 556.063,389.891 542.688,389.829C532.497,389.782 512.318,389.827 511.515,389.829C510.712,389.827 490.533,389.782 480.342,389.829C466.967,389.891 445.79,389.953 431.3,390.201C418.621,390.418 404.459,390.884 393.275,391.319C387.707,391.536 378.949,391.995 372.495,392.347Z" style="fill:white;"/>
        </g>
    </g>
    <g id="Outer-circle" serif:id="Outer circle" transform="matrix(1,0,0,1,-150.618,-150.618)">
        <path d="M512,150.618C711.452,150.618 873.382,312.548 873.382,512C873.382,711.452 711.452,873.382 512,873.382C312.548,873.382 150.618,711.452 150.618,512C150.618,312.548 312.548,150.618 512,150.618ZM512,202.993C682.546,202.993 821.007,341.454 821.007,512C821.007,682.546 682.546,821.007 512,821.007C341.454,821.007 202.993,682.546 202.993,512C202.993,341.454 341.454,202.993 512,202.993Z" style="fill:white;"/>
    </g>
</svg>
